<svg width="29" height="16" viewBox="0 0 29 16" fill="none" xmlns="http://www.w3.org/2000/svg">
<path d="M0.826 16V0.599999H7.492C8.87067 0.599999 10.0587 0.827332 11.056 1.282C12.0533 1.722 12.8233 2.36 13.366 3.196C13.9087 4.032 14.18 5.02933 14.18 6.188C14.18 7.332 13.9087 8.322 13.366 9.158C12.8233 9.97933 12.0533 10.61 11.056 11.05C10.0587 11.49 8.87067 11.71 7.492 11.71H2.806L4.39 10.148V16H0.826ZM10.616 16L6.766 10.412H10.572L14.466 16H10.616ZM4.39 10.544L2.806 8.872H7.294C8.394 8.872 9.21533 8.63733 9.758 8.168C10.3007 7.684 10.572 7.024 10.572 6.188C10.572 5.33733 10.3007 4.67733 9.758 4.208C9.21533 3.73867 8.394 3.504 7.294 3.504H2.806L4.39 1.81V10.544ZM19.9789 16V3.504H15.0509V0.599999H28.4709V3.504H23.5429V16H19.9789Z" fill="#CAE26E"/>
</svg>
